<svg xmlns="http://www.w3.org/2000/svg" viewBox="0 0 1818 1818"><g data-v="silueta"><path d="M0,0 L10,0 L46,10 L56,13 L80,20 L98,25 L100,30 L97,44 L91,82 L86,116 L86,122 L84,130 L79,159 L76,180 L72,205 L65,252 L61,275 L56,309 L52,335 L51,343 L47,368 L43,392 L40,416 L38,430 L37,443 L40,445 L48,438 L51,435 L57,407 L66,369 L77,321 L83,296 L87,276 L92,255 L97,236 L105,197 L115,156 L121,126 L125,107 L131,84 L137,55 L141,37 L143,33 L156,34 L171,36 L197,40 L209,42 L224,45 L248,54 L268,61 L287,69 L292,73 L289,82 L280,101 L271,121 L263,137 L253,159 L250,164 L249,171 L254,173 L270,181 L284,188 L289,188 L293,183 L306,159 L318,138 L323,129 L328,122 L334,110 L341,99 L346,91 L351,90 L366,101 L381,111 L404,126 L412,133 L417,138 L426,149 L432,154 L438,162 L448,172 L454,180 L462,188 L463,193 L455,203 L434,224 L426,230 L419,239 L410,246 L403,255 L393,263 L386,272 L378,278 L273,383 L275,387 L291,378 L301,372 L320,364 L339,357 L350,354 L357,347 L367,339 L372,334 L382,327 L390,320 L406,308 L417,299 L428,290 L436,283 L447,275 L452,270 L463,262 L468,258 L472,254 L484,245 L495,236 L501,235 L515,244 L520,249 L532,258 L546,268 L552,272 L562,281 L564,282 L564,284 L568,286 L574,294 L588,308 L595,317 L602,324 L609,333 L616,338 L615,342 L601,350 L585,358 L563,370 L546,380 L523,392 L507,402 L491,410 L491,416 L497,425 L503,439 L507,450 L507,452 L518,448 L538,440 L553,433 L579,421 L592,416 L602,412 L609,412 L623,422 L627,427 L637,434 L642,440 L653,449 L664,460 L672,475 L681,489 L691,505 L703,523 L715,541 L715,546 L712,548 L674,555 L644,561 L620,566 L588,572 L578,574 L574,575 L565,576 L543,581 L490,591 L482,594 L473,606 L473,609 L475,610 L623,610 L690,609 L696,612 L705,633 L714,654 L722,675 L725,689 L729,710 L736,749 L736,754 L733,756 L693,745 L678,740 L643,729 L624,722 L593,713 L574,706 L557,701 L558,706 L569,715 L577,723 L588,732 L598,742 L607,749 L614,756 L624,762 L643,770 L672,783 L695,794 L719,805 L728,810 L730,815 L730,858 L729,861 L728,898 L727,902 L722,901 L718,898 L718,896 L714,894 L706,886 L697,879 L688,871 L680,864 L672,856 L663,849 L656,842 L647,835 L638,827 L630,820 L622,813 L614,806 L606,799 L598,792 L591,785 L586,782 L586,780 L582,778 L572,769 L564,762 L554,753 L546,746 L532,734 L524,727 L516,720 L505,711 L496,703 L488,696 L480,688 L471,681 L462,672 L453,665 L444,656 L435,649 L424,639 L416,632 L406,623 L398,616 L388,607 L380,600 L372,593 L361,584 L351,575 L342,567 L334,560 L324,551 L316,544 L309,537 L304,534 L304,532 L300,530 L290,521 L285,522 L294,535 L304,549 L312,561 L316,566 L316,568 L318,568 L326,581 L334,591 L342,603 L352,616 L358,624 L372,634 L396,658 L405,665 L434,694 L443,701 L452,710 L460,717 L472,728 L494,750 L496,751 L496,753 L499,754 L504,759 L516,770 L520,773 L520,775 L524,777 L536,788 L542,795 L550,802 L560,812 L569,819 L591,841 L599,847 L616,864 L622,868 L626,873 L637,882 L645,889 L650,894 L659,903 L670,912 L675,918 L677,928 L678,933 L678,1014 L677,1017 L676,1036 L675,1040 L674,1064 L673,1069 L672,1094 L669,1097 L660,1086 L650,1076 L644,1068 L636,1060 L630,1052 L626,1048 L626,1046 L622,1044 L616,1036 L607,1026 L600,1018 L593,1010 L586,1002 L577,992 L570,984 L568,980 L566,980 L559,971 L554,966 L554,964 L550,962 L544,954 L534,944 L528,936 L520,928 L514,920 L504,910 L498,902 L494,898 L494,896 L492,896 L485,887 L477,878 L470,870 L461,860 L454,852 L445,842 L438,834 L429,824 L422,816 L413,806 L406,798 L398,790 L391,781 L382,772 L375,763 L367,755 L363,756 L363,777 L370,785 L382,801 L396,820 L401,824 L407,835 L418,849 L428,863 L440,878 L444,884 L448,888 L458,903 L471,920 L481,933 L493,949 L505,965 L513,976 L521,986 L531,999 L541,1013 L546,1018 L555,1031 L566,1045 L580,1064 L593,1080 L605,1096 L613,1106 L613,1108 L617,1110 L624,1121 L637,1138 L648,1152 L654,1160 L655,1168 L648,1193 L639,1219 L629,1244 L618,1270 L614,1277 L612,1283 L605,1295 L600,1307 L590,1326 L585,1336 L577,1350 L573,1349 L563,1333 L556,1322 L548,1311 L542,1300 L536,1293 L530,1282 L515,1259 L507,1247 L498,1233 L485,1213 L478,1201 L468,1187 L459,1172 L449,1157 L442,1146 L436,1137 L425,1119 L419,1111 L409,1095 L400,1081 L391,1067 L381,1051 L374,1040 L368,1031 L359,1017 L354,1011 L349,1002 L342,991 L330,972 L318,955 L314,949 L310,950 L302,963 L303,970 L313,988 L318,995 L326,1011 L332,1019 L340,1035 L350,1051 L358,1067 L367,1082 L377,1100 L383,1110 L390,1121 L399,1138 L403,1143 L411,1159 L426,1186 L439,1209 L451,1230 L463,1252 L467,1257 L475,1273 L482,1284 L490,1300 L501,1319 L507,1329 L510,1336 L509,1343 L498,1368 L489,1388 L475,1415 L461,1439 L448,1464 L442,1473 L432,1491 L422,1507 L414,1521 L410,1521 L403,1508 L398,1499 L398,1497 L392,1499 L382,1513 L372,1526 L363,1537 L356,1546 L352,1550 L350,1550 L348,1554 L344,1560 L342,1560 L340,1564 L322,1582 L315,1591 L312,1592 L310,1596 L295,1611 L291,1610 L285,1591 L278,1568 L271,1546 L260,1509 L254,1491 L245,1460 L236,1433 L228,1406 L225,1399 L218,1374 L211,1351 L206,1338 L198,1310 L189,1282 L185,1270 L181,1269 L174,1278 L172,1278 L172,1280 L170,1280 L170,1282 L168,1282 L166,1286 L164,1291 L180,1351 L191,1391 L196,1409 L200,1422 L211,1464 L220,1495 L226,1516 L226,1525 L219,1533 L206,1546 L204,1546 L202,1550 L191,1559 L176,1574 L174,1574 L174,1576 L172,1576 L170,1580 L161,1587 L150,1598 L143,1604 L138,1610 L130,1616 L118,1628 L114,1629 L111,1620 L108,1607 L106,1592 L100,1561 L97,1541 L94,1527 L92,1520 L90,1508 L88,1493 L83,1465 L80,1448 L71,1403 L67,1380 L64,1364 L61,1349 L60,1347 L55,1348 L47,1355 L44,1358 L42,1358 L41,1367 L42,1376 L43,1396 L44,1400 L45,1415 L46,1420 L47,1436 L48,1440 L49,1453 L50,1456 L51,1473 L52,1476 L53,1493 L55,1510 L56,1520 L57,1536 L59,1551 L59,1560 L61,1574 L61,1582 L62,1586 L63,1602 L66,1622 L67,1637 L68,1639 L69,1659 L70,1662 L70,1671 L67,1678 L57,1687 L51,1694 L43,1701 L18,1726 L9,1733 L7,1735 L2,1734 L-6,1727 L-14,1720 L-39,1695 L-46,1689 L-53,1681 L-58,1676 L-60,1671 L-60,1662 L-59,1659 L-58,1639 L-57,1637 L-56,1622 L-53,1602 L-52,1586 L-51,1582 L-51,1573 L-49,1560 L-49,1551 L-47,1536 L-46,1520 L-45,1510 L-43,1493 L-42,1476 L-41,1473 L-40,1456 L-39,1453 L-38,1440 L-37,1436 L-36,1420 L-35,1415 L-34,1400 L-33,1396 L-32,1376 L-31,1367 L-32,1358 L-36,1356 L-43,1349 L-46,1347 L-50,1347 L-53,1358 L-56,1377 L-60,1397 L-68,1438 L-72,1462 L-76,1482 L-80,1505 L-81,1512 L-83,1526 L-85,1531 L-89,1552 L-91,1565 L-98,1604 L-99,1611 L-103,1628 L-105,1629 L-110,1626 L-123,1613 L-131,1607 L-138,1599 L-146,1592 L-154,1584 L-162,1578 L-162,1576 L-164,1576 L-164,1574 L-168,1572 L-184,1556 L-193,1549 L-194,1546 L-198,1544 L-215,1527 L-216,1525 L-216,1516 L-202,1467 L-194,1438 L-188,1414 L-184,1403 L-181,1391 L-170,1351 L-154,1291 L-157,1285 L-158,1282 L-160,1282 L-160,1280 L-162,1280 L-162,1278 L-164,1278 L-171,1269 L-175,1270 L-180,1286 L-186,1304 L-195,1334 L-200,1349 L-205,1364 L-213,1391 L-217,1404 L-222,1420 L-233,1455 L-239,1474 L-248,1504 L-255,1525 L-264,1556 L-272,1580 L-280,1608 L-282,1611 L-286,1610 L-302,1594 L-302,1592 L-306,1590 L-315,1579 L-332,1562 L-332,1560 L-334,1560 L-340,1552 L-340,1550 L-345,1548 L-351,1539 L-359,1530 L-372,1513 L-383,1498 L-388,1497 L-390,1503 L-399,1519 L-400,1521 L-405,1520 L-416,1500 L-426,1484 L-437,1465 L-449,1443 L-459,1425 L-472,1402 L-483,1380 L-490,1364 L-500,1340 L-499,1333 L-490,1317 L-479,1298 L-472,1284 L-465,1273 L-456,1256 L-448,1243 L-434,1217 L-423,1198 L-411,1177 L-395,1148 L-392,1142 L-385,1131 L-376,1114 L-370,1105 L-359,1086 L-354,1077 L-346,1063 L-338,1048 L-330,1035 L-320,1016 L-314,1007 L-306,992 L-296,976 L-292,967 L-293,961 L-300,950 L-304,949 L-311,959 L-320,972 L-332,991 L-343,1008 L-347,1015 L-353,1023 L-363,1039 L-370,1049 L-380,1066 L-387,1076 L-396,1091 L-403,1101 L-413,1117 L-420,1127 L-430,1144 L-436,1152 L-446,1168 L-456,1183 L-465,1197 L-472,1207 L-478,1218 L-488,1233 L-497,1247 L-507,1262 L-520,1282 L-528,1296 L-534,1303 L-540,1314 L-550,1328 L-562,1348 L-564,1350 L-568,1349 L-577,1332 L-587,1313 L-594,1298 L-601,1284 L-603,1282 L-605,1275 L-613,1259 L-623,1235 L-629,1219 L-638,1193 L-645,1168 L-644,1160 L-637,1151 L-627,1138 L-617,1125 L-608,1112 L-605,1108 L-603,1108 L-601,1104 L-588,1087 L-578,1074 L-566,1059 L-558,1048 L-548,1035 L-537,1020 L-534,1015 L-529,1010 L-520,998 L-511,986 L-502,975 L-494,964 L-480,945 L-470,932 L-456,914 L-448,903 L-436,885 L-431,880 L-422,868 L-412,855 L-404,844 L-395,832 L-391,824 L-385,819 L-374,804 L-365,792 L-356,780 L-353,777 L-353,756 L-357,755 L-368,766 L-375,775 L-384,784 L-391,793 L-402,804 L-409,813 L-418,822 L-425,831 L-434,840 L-441,849 L-450,858 L-457,867 L-466,876 L-473,885 L-481,894 L-482,896 L-484,896 L-486,900 L-493,908 L-500,916 L-507,923 L-513,931 L-521,939 L-527,947 L-537,957 L-542,964 L-544,964 L-546,968 L-555,978 L-556,980 L-558,980 L-560,984 L-569,994 L-576,1002 L-585,1012 L-592,1020 L-599,1028 L-606,1036 L-614,1046 L-616,1046 L-618,1050 L-625,1058 L-632,1066 L-639,1074 L-646,1082 L-653,1089 L-659,1097 L-662,1094 L-663,1069 L-664,1064 L-665,1040 L-666,1036 L-667,1017 L-668,1014 L-668,933 L-666,920 L-662,914 L-651,904 L-643,897 L-637,890 L-629,884 L-618,874 L-613,870 L-608,865 L-600,858 L-586,844 L-578,838 L-556,816 L-547,809 L-534,796 L-527,790 L-520,782 L-512,775 L-510,775 L-508,771 L-500,764 L-490,756 L-488,753 L-486,753 L-486,751 L-478,744 L-454,720 L-446,713 L-434,702 L-426,695 L-418,688 L-392,662 L-383,655 L-360,632 L-348,624 L-341,615 L-329,599 L-321,587 L-314,578 L-308,568 L-306,568 L-304,564 L-288,540 L-278,527 L-275,522 L-280,521 L-292,532 L-294,532 L-294,534 L-302,540 L-312,550 L-321,557 L-330,566 L-338,572 L-348,582 L-357,589 L-370,600 L-381,610 L-389,617 L-399,626 L-407,633 L-417,642 L-425,649 L-438,660 L-446,668 L-455,675 L-464,684 L-473,691 L-484,702 L-492,708 L-501,716 L-509,723 L-522,734 L-531,742 L-539,749 L-552,760 L-560,768 L-571,777 L-574,780 L-576,780 L-576,782 L-584,788 L-594,798 L-603,805 L-610,812 L-618,818 L-626,826 L-635,833 L-644,841 L-652,848 L-660,855 L-668,862 L-676,870 L-685,877 L-694,885 L-702,892 L-706,896 L-708,896 L-708,898 L-714,902 L-717,902 L-718,898 L-719,861 L-720,858 L-720,815 L-718,810 L-699,800 L-683,793 L-660,782 L-631,769 L-608,759 L-596,748 L-585,739 L-576,730 L-565,721 L-556,712 L-547,705 L-547,701 L-564,706 L-586,714 L-614,722 L-642,732 L-668,740 L-686,746 L-723,756 L-726,754 L-725,744 L-716,693 L-713,682 L-711,672 L-703,652 L-693,629 L-686,612 L-680,609 L-613,610 L-465,610 L-463,609 L-464,605 L-473,593 L-490,589 L-522,583 L-547,578 L-559,575 L-566,575 L-570,573 L-593,569 L-626,563 L-643,559 L-675,553 L-702,548 L-705,546 L-704,539 L-693,523 L-681,505 L-668,484 L-658,468 L-653,459 L-640,446 L-629,437 L-624,432 L-614,424 L-610,420 L-599,412 L-592,412 L-573,420 L-560,425 L-541,434 L-518,444 L-501,451 L-497,452 L-494,442 L-488,427 L-482,417 L-481,416 L-481,410 L-502,399 L-517,390 L-538,379 L-559,367 L-575,358 L-596,347 L-605,342 L-606,338 L-598,332 L-589,321 L-582,314 L-575,305 L-561,291 L-556,284 L-554,284 L-554,282 L-543,273 L-538,269 L-526,261 L-508,247 L-499,240 L-491,235 L-485,236 L-472,247 L-459,256 L-454,261 L-444,269 L-438,273 L-433,278 L-420,288 L-410,297 L-396,308 L-379,321 L-371,328 L-359,336 L-354,342 L-344,350 L-340,354 L-323,359 L-295,370 L-277,380 L-265,387 L-263,383 L-371,275 L-378,270 L-385,261 L-395,253 L-400,246 L-409,239 L-418,228 L-427,221 L-448,200 L-453,193 L-452,188 L-441,177 L-435,169 L-425,159 L-420,152 L-413,146 L-404,134 L-399,131 L-394,126 L-371,111 L-349,96 L-341,90 L-336,91 L-331,99 L-324,110 L-316,125 L-310,134 L-297,158 L-291,168 L-281,186 L-279,188 L-272,187 L-256,179 L-241,171 L-239,171 L-240,164 L-248,148 L-256,132 L-261,121 L-268,105 L-275,91 L-282,75 L-280,71 L-268,65 L-253,59 L-232,52 L-214,45 L-190,40 L-181,39 L-161,36 L-146,34 L-133,33 L-130,42 L-122,78 L-117,99 L-114,110 L-109,137 L-102,169 L-93,206 L-85,244 L-80,263 L-75,284 L-70,310 L-63,338 L-52,387 L-46,411 L-41,435 L-32,444 L-29,444 L-27,443 L-29,421 L-32,403 L-35,379 L-40,351 L-42,339 L-44,322 L-49,288 L-55,252 L-63,199 L-67,172 L-73,136 L-75,124 L-76,121 L-77,109 L-85,57 L-89,35 L-90,28 L-88,25 L-48,14 L-41,11 L-3,1 Z " fill="#1d1a15" transform="translate(903,41)"/></g><g data-v="gold"><path d="M0,0 L4,0 L4,6 L10,21 L16,39 L30,80 L52,144 L64,180 L74,208 L86,244 L98,280 L117,336 L126,364 L126,370 L92,370 L87,364 L71,331 L53,294 L42,271 L29,244 L17,218 L-3,177 L-15,151 L-25,130 L-29,127 L-30,120 L-38,104 L-50,78 L-57,64 L-64,48 L-71,34 L-70,27 L-58,21 L-28,10 L-4,1 Z " fill="#b8934c" transform="translate(693,85)"/><path d="M0,0 L8,1 L32,10 L54,18 L71,25 L75,29 L74,36 L64,57 L55,77 L47,93 L37,115 L34,120 L33,127 L28,132 L14,161 L5,181 L-6,203 L-17,226 L-30,254 L-47,289 L-63,323 L-79,355 L-85,367 L-88,370 L-122,370 L-121,361 L-101,300 L-89,265 L-77,229 L-62,185 L-50,149 L-33,100 L-21,66 L-10,33 L-1,8 L0,4 Z " fill="#b8934c" transform="translate(1119,85)"/><path d="M0,0 L5,1 L10,9 L16,19 L21,28 L30,43 L44,68 L57,91 L61,97 L65,100 L66,107 L79,130 L95,157 L107,178 L119,199 L136,228 L150,252 L162,273 L179,302 L189,319 L188,324 L161,324 L155,320 L143,305 L129,286 L117,271 L107,257 L93,239 L79,221 L67,205 L53,187 L44,175 L28,154 L17,139 L1,118 L-7,107 L-18,93 L-26,83 L-38,67 L-52,49 L-56,44 L-58,43 L-56,38 L-39,27 L-15,11 Z " fill="#b8934c" transform="translate(562,131)"/><path d="M0,0 L5,1 L22,13 L34,21 L57,36 L62,41 L62,43 L57,48 L47,60 L35,76 L23,92 L13,104 L-1,123 L-14,140 L-28,159 L-41,176 L-50,188 L-63,205 L-77,223 L-86,235 L-100,253 L-112,269 L-124,285 L-138,303 L-150,319 L-155,323 L-157,324 L-184,324 L-185,319 L-174,300 L-157,271 L-141,243 L-124,214 L-113,195 L-101,174 L-84,145 L-70,121 L-61,105 L-61,99 L-56,96 L-43,73 L-29,48 L-20,33 L-14,23 L-4,5 Z " fill="#b8934c" transform="translate(1250,131)"/><path d="M0,0 L6,1 L19,12 L30,20 L30,22 L34,24 L50,36 L50,38 L54,40 L71,53 L81,62 L95,73 L112,86 L112,88 L116,90 L130,100 L130,102 L134,104 L148,116 L150,119 L107,119 L90,122 L78,126 L71,129 L64,129 L40,113 L21,100 L0,86 L-15,76 L-27,68 L-60,46 L-55,40 L-47,34 L-35,26 L-17,12 L-12,10 L-12,8 Z " fill="#b8934c" transform="translate(412,276)"/><path d="M0,0 L6,1 L16,8 L16,10 L21,12 L35,23 L49,33 L55,37 L64,45 L59,49 L31,68 L16,78 L4,86 L-11,96 L-44,118 L-60,129 L-67,129 L-82,123 L-95,120 L-103,119 L-146,119 L-140,112 L-130,104 L-126,102 L-126,100 L-115,92 L-110,88 L-108,88 L-107,85 L-91,73 L-80,64 L-69,55 L-61,48 L-48,38 L-46,38 L-46,36 L-34,27 L-28,22 L-26,22 L-25,19 L-13,10 L-2,1 Z " fill="#b8934c" transform="translate(1400,276)"/><path d="M0,0 L20,0 L40,4 L59,11 L78,20 L96,31 L112,42 L123,50 L125,52 L124,57 L110,70 L102,77 L96,76 L77,62 L63,54 L47,46 L36,41 L20,37 L13,36 L-3,36 L-20,41 L-33,50 L-42,59 L-50,73 L-55,92 L-55,114 L-50,135 L-42,155 L-32,173 L-24,184 L-25,188 L-32,195 L-40,202 L-44,205 L-49,205 L-56,197 L-68,177 L-78,156 L-85,134 L-87,123 L-88,111 L-88,96 L-86,80 L-83,68 L-75,50 L-69,39 L-62,30 L-55,23 L-40,13 L-28,7 L-12,2 Z " fill="#b8934c" transform="translate(526,431)"/><path d="M0,0 L20,0 L36,3 L50,8 L62,14 L76,24 L85,33 L93,46 L101,63 L105,75 L107,85 L108,96 L108,111 L106,128 L102,144 L96,161 L86,181 L75,198 L69,205 L62,204 L54,196 L46,189 L44,187 L45,182 L53,171 L60,159 L68,140 L72,127 L75,114 L75,92 L70,73 L64,62 L55,52 L45,44 L37,40 L23,36 L7,36 L-9,39 L-21,43 L-40,52 L-54,60 L-72,73 L-78,77 L-83,76 L-97,63 L-105,56 L-104,51 L-95,44 L-82,35 L-63,23 L-46,14 L-26,6 L-12,2 Z " fill="#b8934c" transform="translate(1270,431)"/><path d="M0,0 L7,0 L38,13 L56,21 L76,30 L95,38 L102,40 L98,71 L98,90 L99,98 L99,107 L98,108 L90,107 L44,91 L3,77 L-43,62 L-59,58 L-57,52 L-53,46 L-41,34 L-30,25 L-26,23 L-25,20 L-15,12 L-12,11 L-11,8 Z " fill="#b8934c" transform="translate(304,453)"/><path d="M0,0 L7,0 L19,9 L19,11 L23,13 L33,21 L33,23 L37,25 L52,38 L62,48 L66,56 L66,58 L50,62 L-5,80 L-46,94 L-86,108 L-91,108 L-92,107 L-92,98 L-91,90 L-91,71 L-95,40 L-86,37 L-64,28 L-49,21 L-27,11 Z " fill="#b8934c" transform="translate(1505,453)"/><path d="M0,0 L6,2 L14,11 L26,28 L39,46 L52,64 L65,83 L77,99 L92,121 L103,136 L115,153 L126,169 L138,186 L140,192 L140,209 L138,221 L135,232 L131,248 L123,276 L117,291 L109,307 L95,332 L85,347 L73,362 L65,372 L56,383 L46,397 L34,416 L30,422 L26,422 L17,410 L4,392 L-5,381 L-16,370 L-17,372 L-5,403 L7,433 L19,469 L26,493 L32,521 L32,526 L23,527 L0,532 L-26,536 L-38,536 L-39,532 L-31,516 L-28,506 L-27,499 L-27,489 L-30,477 L-35,467 L-39,463 L-51,466 L-67,481 L-73,484 L-77,466 L-86,426 L-98,376 L-110,321 L-112,307 L-112,264 L-110,245 L-105,218 L-98,199 L-89,183 L-78,166 L-77,164 L-77,156 L-86,131 L-86,124 L-81,112 L-75,104 L-69,103 L-61,110 L-50,123 L-41,134 L-34,142 L-30,144 L-19,142 L-9,136 L-4,126 L-2,113 L-1,80 L0,24 Z M-2,154 L-20,160 L-40,170 L-55,180 L-64,189 L-69,193 L-78,206 L-84,222 L-86,239 L-86,250 L-84,275 L-82,275 L-81,283 L-85,299 L-87,311 L-87,319 L-83,335 L-68,375 L-51,418 L-46,429 L-42,428 L-46,398 L-58,342 L-61,330 L-62,323 L-51,322 L-17,314 L14,307 L31,301 L42,295 L56,284 L65,273 L75,257 L82,241 L85,232 L84,224 L93,214 L98,205 L98,199 L104,191 L102,187 L82,179 L56,168 L27,157 L13,154 Z " fill="#b8934c" transform="translate(1087,494)"/><path d="M0,0 L2,0 L2,24 L3,80 L4,113 L7,129 L12,137 L24,143 L32,144 L38,140 L51,125 L59,115 L68,105 L71,103 L77,104 L84,114 L88,124 L88,131 L79,156 L79,164 L90,182 L98,195 L104,209 L107,218 L112,245 L114,264 L114,307 L110,331 L98,385 L90,417 L82,453 L76,481 L74,484 L66,478 L53,466 L41,463 L36,469 L32,477 L29,489 L29,499 L32,513 L37,525 L41,532 L40,536 L28,536 L-9,530 L-26,526 L-30,526 L-29,516 L-22,486 L-13,456 L-4,430 L10,395 L19,372 L18,370 L5,383 L-3,393 L-13,407 L-23,421 L-27,423 L-31,418 L-42,400 L-52,386 L-62,373 L-70,364 L-82,348 L-90,337 L-103,314 L-113,296 L-121,276 L-129,248 L-133,232 L-136,221 L-138,209 L-138,192 L-135,184 L-121,165 L-113,153 L-100,135 L-90,121 L-79,105 L-66,87 L-54,70 L-40,50 L-26,31 L-16,17 L-7,5 L-3,1 Z M-11,154 L-27,158 L-54,168 L-80,179 L-95,185 L-101,188 L-102,191 L-96,199 L-96,205 L-90,215 L-82,224 L-83,232 L-76,251 L-69,264 L-59,278 L-52,286 L-37,297 L-24,303 L-9,308 L50,321 L58,323 L64,323 L61,338 L52,379 L47,404 L44,428 L48,429 L58,406 L71,372 L82,343 L88,325 L89,319 L89,311 L84,286 L83,278 L84,275 L86,275 L88,250 L88,239 L86,222 L80,206 L73,196 L68,190 L60,183 L53,177 L38,168 L17,158 L4,154 Z " fill="#b8934c" transform="translate(727,494)"/><path d="M0,0 L6,1 L17,9 L29,20 L39,29 L47,36 L61,48 L73,59 L86,69 L92,68 L107,55 L117,46 L131,34 L144,22 L152,15 L165,4 L172,0 L176,0 L175,4 L166,24 L149,59 L136,85 L124,111 L101,156 L93,169 L90,172 L85,171 L79,163 L64,134 L50,107 L34,73 L15,35 L4,11 L0,3 Z " fill="#b8934c" transform="translate(820,495)"/><path d="M0,0 L67,1 L215,1 L219,0 L226,10 L225,14 L220,19 L211,26 L192,30 L157,36 L89,49 L39,58 L16,63 L-26,71 L-32,72 L-31,63 L-25,48 L-17,29 L-7,6 L-3,1 Z " fill="#b8934c" transform="translate(223,650)"/><path d="M0,0 L4,1 L152,1 L219,0 L224,3 L229,13 L236,29 L249,60 L251,66 L251,72 L225,67 L183,59 L158,54 L87,41 L40,32 L11,27 L4,23 L-5,16 L-7,13 L-6,8 Z " fill="#b8934c" transform="translate(1374,650)"/><path d="M0,0 L7,0 L11,5 L15,13 L21,17 L24,18 L35,18 L45,13 L50,13 L56,20 L57,22 L57,28 L53,33 L41,39 L37,40 L20,40 L9,36 L0,28 L-7,16 L-9,9 L-9,3 L-7,1 Z " fill="#b8934c" transform="translate(712,711)"/><path d="M0,0 L14,1 L16,3 L15,13 L9,25 L1,34 L-9,39 L-13,40 L-30,40 L-43,35 L-48,31 L-50,28 L-50,22 L-46,16 L-43,13 L-36,14 L-28,18 L-17,18 L-9,14 L-5,8 L-2,2 Z " fill="#b8934c" transform="translate(1097,711)"/><path d="M0,0 L4,0 L4,26 L-13,43 L-21,50 L-35,63 L-43,70 L-54,80 L-65,89 L-81,104 L-93,115 L-103,124 L-114,133 L-127,145 L-140,157 L-151,166 L-166,180 L-174,187 L-188,199 L-203,213 L-211,220 L-222,230 L-230,237 L-244,249 L-255,259 L-266,268 L-273,275 L-281,282 L-295,294 L-302,301 L-309,306 L-312,305 L-312,250 L-310,237 L-306,231 L-295,221 L-287,214 L-281,208 L-279,208 L-278,205 L-270,198 L-256,186 L-254,186 L-252,182 L-250,183 L-253,187 L-243,181 L-227,170 L-209,156 L-189,141 L-177,132 L-165,123 L-146,109 L-134,100 L-122,91 L-103,77 L-91,68 L-78,58 L-64,48 L-51,38 L-35,26 L-19,14 L-2,1 Z M-256,188 Z " fill="#b8934c" transform="translate(547,724)"/><path d="M0,0 L6,1 L24,15 L40,27 L52,36 L68,48 L83,59 L96,69 L115,83 L127,92 L139,101 L158,115 L170,124 L182,133 L201,147 L219,161 L231,170 L244,179 L257,187 L254,182 L258,184 L258,186 L262,188 L277,201 L283,206 L283,208 L287,210 L297,220 L308,229 L313,235 L315,245 L316,252 L316,305 L313,306 L303,298 L295,290 L284,281 L269,267 L258,258 L244,245 L233,236 L221,225 L213,218 L200,206 L192,199 L181,189 L173,182 L163,173 L149,161 L136,149 L128,142 L116,131 L105,122 L90,108 L80,99 L67,87 L56,78 L41,64 L33,57 L23,48 L8,34 L0,26 Z M259,188 Z " fill="#b8934c" transform="translate(1265,724)"/><path d="M0,0 L2,0 L3,10 L2,74 L-8,90 L-23,112 L-35,129 L-47,146 L-64,171 L-78,191 L-91,210 L-103,227 L-114,243 L-126,260 L-136,275 L-146,289 L-175,333 L-189,354 L-199,369 L-206,379 L-207,383 L-202,378 L-195,369 L-184,357 L-176,347 L-164,333 L-155,323 L-146,312 L-134,299 L-125,288 L-116,278 L-109,270 L-97,257 L-88,247 L-79,236 L-70,227 L-61,216 L-54,209 L-47,201 L-36,189 L-27,179 L-16,167 L-4,153 L8,140 L15,132 L17,130 L22,130 L34,146 L33,151 L22,165 L10,179 L-3,195 L-14,209 L-27,225 L-40,241 L-54,258 L-62,268 L-74,282 L-87,298 L-98,312 L-107,322 L-116,333 L-129,349 L-138,360 L-151,376 L-160,387 L-171,400 L-182,414 L-191,425 L-204,441 L-215,454 L-224,465 L-237,481 L-249,497 L-252,496 L-261,476 L-276,438 L-288,402 L-291,390 L-290,382 L-283,373 L-273,360 L-263,347 L-255,337 L-245,323 L-233,308 L-224,296 L-212,281 L-204,270 L-194,257 L-184,244 L-171,227 L-162,215 L-154,204 L-145,193 L-135,179 L-122,162 L-115,153 L-100,133 L-89,118 L-75,99 L-67,89 L-58,77 L-50,66 L-41,54 L-31,41 L-20,26 L-11,14 L-2,2 Z " fill="#b8934c" transform="translate(549,819)"/><path d="M0,0 L4,2 L14,15 L23,27 L37,46 L46,58 L56,71 L66,85 L78,100 L88,114 L97,126 L111,145 L120,157 L131,171 L143,187 L151,198 L159,208 L171,224 L180,236 L194,254 L204,267 L218,286 L231,302 L243,318 L253,331 L259,339 L269,352 L276,361 L286,374 L292,382 L293,390 L286,415 L275,446 L260,483 L253,497 L250,496 L241,484 L228,468 L219,457 L210,446 L199,433 L191,423 L183,413 L170,397 L161,386 L150,373 L143,364 L132,351 L121,337 L110,324 L101,313 L91,301 L80,287 L68,273 L57,260 L46,246 L35,233 L27,223 L14,207 L5,195 L-6,182 L-15,171 L-25,159 L-32,149 L-31,144 L-20,130 L-15,130 L-7,138 L2,149 L10,157 L19,168 L26,175 L33,183 L45,196 L54,206 L63,216 L76,231 L89,245 L96,253 L105,263 L116,275 L128,289 L140,303 L149,313 L158,324 L170,337 L179,348 L190,361 L200,372 L206,381 L209,383 L207,377 L200,368 L191,354 L181,339 L152,295 L141,279 L131,265 L121,250 L109,233 L98,217 L86,200 L73,181 L59,161 L49,146 L37,129 L25,112 L12,93 L1,76 L0,74 L-1,4 Z " fill="#b8934c" transform="translate(1265,819)"/><path d="M0,0 L5,2 L18,15 L25,23 L34,34 L44,46 L56,65 L65,82 L71,97 L74,108 L78,131 L80,143 L81,148 L77,165 L76,167 L72,168 L59,152 L49,138 L36,121 L23,103 L11,87 L2,75 L-1,69 L-1,12 Z " fill="#b8934c" transform="translate(590,838)"/><path d="M0,0 L1,0 L2,12 L2,69 L-3,78 L-17,96 L-30,114 L-42,130 L-54,146 L-63,158 L-71,168 L-75,167 L-79,153 L-80,144 L-78,140 L-74,114 L-71,100 L-66,87 L-58,70 L-47,52 L-38,40 L-26,26 L-19,18 L-10,8 L-3,1 Z " fill="#b8934c" transform="translate(1225,838)"/><path d="M0,0 L5,1 L14,12 L24,25 L23,30 L14,45 L5,61 L-10,88 L-21,108 L-29,122 L-41,143 L-57,171 L-69,193 L-83,217 L-98,244 L-111,268 L-125,292 L-134,309 L-142,323 L-151,339 L-158,351 L-160,358 L-152,349 L-138,330 L-129,319 L-119,305 L-105,287 L-94,273 L-81,257 L-72,245 L-59,229 L-51,218 L-43,208 L-36,199 L-22,181 L-7,161 L2,150 L16,132 L27,119 L32,118 L39,129 L43,136 L40,143 L32,157 L24,170 L7,198 L-4,216 L-21,244 L-37,270 L-53,296 L-66,318 L-83,346 L-100,374 L-114,397 L-127,418 L-140,439 L-152,459 L-161,473 L-164,473 L-176,451 L-186,433 L-196,415 L-207,394 L-219,367 L-227,348 L-226,341 L-215,322 L-202,299 L-190,277 L-183,266 L-177,254 L-164,231 L-154,213 L-145,198 L-139,187 L-127,165 L-116,146 L-103,122 L-96,118 L-91,113 L-82,103 L-68,86 L-58,73 L-50,63 L-37,47 L-28,36 L-18,23 L-8,10 L-1,1 Z " fill="#b8934c" transform="translate(630,1033)"/><path d="M0,0 L5,1 L14,12 L23,24 L33,37 L44,50 L55,64 L67,79 L78,93 L89,106 L95,113 L100,118 L107,122 L122,150 L133,169 L147,194 L157,212 L167,229 L180,253 L186,263 L192,274 L202,291 L208,303 L220,324 L228,337 L231,344 L230,351 L217,380 L209,398 L199,417 L188,437 L179,453 L168,473 L165,473 L153,454 L138,429 L128,413 L112,387 L95,359 L78,331 L66,311 L51,286 L38,265 L24,242 L7,214 L-3,198 L-15,178 L-24,163 L-35,145 L-39,137 L-36,130 L-29,120 L-28,118 L-23,119 L-15,128 L-4,142 L4,152 L18,170 L30,186 L40,199 L49,210 L62,227 L75,244 L84,255 L95,269 L108,285 L117,297 L124,306 L137,324 L149,339 L161,355 L164,358 L161,349 L150,330 L139,310 L131,296 L117,271 L102,244 L90,222 L76,198 L66,180 L51,153 L37,129 L26,109 L16,92 L7,75 L-3,57 L-14,38 L-20,29 L-19,24 L-6,7 Z " fill="#b8934c" transform="translate(1182,1033)"/><path d="M0,0 L5,1 L33,11 L68,21 L92,26 L109,29 L114,34 L115,38 L112,41 L97,42 L81,42 L51,41 L24,37 L6,33 L-2,32 Z " fill="#b8934c" transform="translate(695,1037)"/><path d="M0,0 L3,0 L5,32 L-11,35 L-32,39 L-48,41 L-78,42 L-94,42 L-109,41 L-112,38 L-110,32 L-106,29 L-89,26 L-61,20 L-30,11 L-2,1 Z " fill="#b8934c" transform="translate(1118,1037)"/><path d="M0,0 L16,4 L52,10 L70,12 L87,13 L124,13 L127,16 L126,23 L120,26 L98,31 L88,33 L60,36 L16,36 L1,35 L-1,1 Z " fill="#b8934c" transform="translate(694,1093)"/><path d="M0,0 L3,1 L1,35 L-14,36 L-58,36 L-86,33 L-114,27 L-123,24 L-125,21 L-125,16 L-122,13 L-85,13 L-57,11 L-24,6 L-3,1 Z " fill="#b8934c" transform="translate(1120,1093)"/><path d="M0,0 L3,1 L2,6 L-8,15 L-27,29 L-45,39 L-58,45 L-59,47 L-64,45 L-78,31 L-91,14 L-97,6 L-97,5 L-49,5 L-23,3 Z " fill="#b8934c" transform="translate(805,1147)"/><path d="M0,0 L32,4 L50,5 L98,5 L95,10 L82,27 L71,39 L64,46 L60,47 L57,44 L38,35 L24,26 L12,17 L-2,5 L-2,1 Z " fill="#b8934c" transform="translate(1010,1147)"/><path d="M0,0 L14,0 L32,3 L53,10 L81,23 L82,26 L80,27 L62,29 L31,36 L17,38 L-3,38 L-23,35 L-54,28 L-66,27 L-68,26 L-67,23 L-39,10 L-18,3 Z " fill="#b8934c" transform="translate(901,1189)"/><path d="M0,0 L5,1 L17,15 L24,24 L23,33 L9,66 L-1,90 L-13,120 L-33,168 L-50,209 L-65,245 L-77,273 L-94,314 L-104,338 L-113,358 L-126,390 L-128,395 L-133,393 L-141,383 L-152,370 L-166,351 L-171,344 L-175,343 L-173,337 L-158,308 L-145,282 L-135,263 L-118,230 L-95,185 L-79,153 L-69,134 L-52,101 L-37,71 L-27,52 L-19,36 L-3,4 Z " fill="#b8934c" transform="translate(691,1195)"/><path d="M0,0 L5,1 L17,24 L25,41 L35,60 L53,95 L68,125 L78,144 L95,177 L113,213 L123,232 L134,254 L144,273 L161,306 L173,330 L179,341 L179,343 L174,345 L164,359 L154,372 L145,383 L137,393 L132,395 L121,368 L112,347 L101,322 L86,285 L63,231 L44,185 L27,144 L15,115 L3,85 L-8,59 L-20,30 L-20,24 L-11,13 Z " fill="#b8934c" transform="translate(1121,1195)"/></g><g data-v="dgold"><path d="M0,0 L4,1 L7,4 L13,32 L15,41 L21,66 L27,94 L30,111 L34,127 L43,164 L46,179 L48,191 L52,207 L58,231 L62,251 L66,267 L71,288 L77,315 L80,330 L84,345 L92,379 L94,392 L95,399 L90,398 L79,389 L69,384 L56,382 L54,381 L51,369 L33,314 L20,276 L8,240 L-7,196 L-19,160 L-36,111 L-48,77 L-59,44 L-68,19 L-69,15 L-68,11 L-61,9 L-46,7 L-40,6 L-34,5 L-27,4 L-21,3 L-12,2 Z " fill="#7f5f22" transform="translate(765,74)"/><path d="M0,0 L15,2 L24,3 L32,5 L39,5 L45,7 L57,8 L69,10 L71,11 L72,17 L66,32 L60,50 L46,91 L24,155 L12,191 L2,219 L-10,255 L-22,291 L-41,347 L-50,375 L-51,381 L-53,382 L-66,384 L-76,389 L-89,399 L-92,399 L-91,392 L-87,370 L-78,332 L-75,322 L-70,297 L-64,273 L-60,253 L-57,241 L-51,215 L-46,193 L-43,182 L-42,174 L-34,139 L-29,121 L-26,104 L-24,94 L-18,66 L-12,41 L-10,32 L-4,4 Z " fill="#7f5f22" transform="translate(1048,74)"/><path d="M0,0 L16,0 L32,3 L44,7 L63,16 L77,24 L95,37 L103,42 L101,46 L92,52 L79,51 L68,50 L30,50 L21,52 L11,57 L6,61 L-1,72 L-4,81 L-5,92 L-3,103 L4,124 L3,130 L-2,136 L-11,143 L-18,150 L-21,151 L-27,142 L-36,128 L-44,110 L-49,97 L-53,79 L-53,57 L-48,38 L-42,27 L-33,17 L-25,10 L-17,5 Z " fill="#7f5f22" transform="translate(523,466)"/><path d="M0,0 L16,0 L33,5 L46,14 L56,24 L64,38 L69,57 L69,79 L64,100 L56,120 L46,138 L38,149 L36,151 L28,144 L20,137 L15,133 L12,127 L13,121 L20,100 L21,88 L19,77 L13,65 L8,59 L-3,53 L-8,51 L-14,50 L-52,50 L-70,52 L-76,52 L-85,46 L-87,42 L-79,37 L-61,24 L-41,13 L-23,5 L-7,1 Z " fill="#7f5f22" transform="translate(1277,466)"/><path d="M0,0 L2,1 L0,8 L-1,55 L-2,58 L-9,61 L-25,73 L-42,86 L-54,95 L-70,107 L-85,118 L-98,128 L-117,142 L-129,151 L-141,160 L-160,174 L-172,183 L-184,192 L-203,206 L-221,220 L-233,229 L-246,238 L-257,245 L-259,245 L-257,241 L-248,231 L-235,219 L-225,211 L-216,201 L-204,190 L-196,183 L-184,171 L-176,164 L-168,156 L-160,150 L-149,138 L-139,130 L-128,120 L-121,112 L-113,104 L-105,97 L-94,88 L-83,76 L-72,67 L-62,58 L-55,50 L-45,40 L-34,31 L-19,16 L-17,16 L-17,14 L-9,7 Z " fill="#7f5f22" transform="translate(553,666)"/><path d="M0,0 L5,2 L17,13 L19,14 L19,16 L23,18 L38,33 L49,42 L63,56 L68,62 L79,71 L93,84 L99,91 L107,97 L124,113 L134,124 L142,131 L155,142 L165,153 L173,159 L184,170 L192,177 L204,189 L212,196 L222,205 L230,214 L238,220 L245,227 L253,234 L261,243 L261,245 L256,243 L245,236 L234,228 L213,212 L193,197 L177,185 L158,171 L142,159 L130,150 L111,136 L99,127 L86,117 L72,107 L59,97 L43,85 L27,73 L10,60 L4,58 L3,55 L2,8 Z " fill="#7f5f22" transform="translate(1261,666)"/><path d="M0,0 L2,3 L5,14 L9,30 L17,58 L23,73 L31,89 L45,114 L55,129 L67,144 L75,154 L84,165 L94,179 L106,198 L110,204 L112,206 L102,224 L88,255 L83,269 L79,269 L76,252 L72,229 L66,213 L58,196 L47,178 L38,166 L26,152 L19,144 L10,134 L4,128 L0,126 L-1,124 L-1,3 Z " fill="#7f5f22" transform="translate(590,712)"/><path d="M0,0 L2,3 L2,124 L0,127 L-5,130 L-16,141 L-23,149 L-32,160 L-42,172 L-54,191 L-63,208 L-69,223 L-72,234 L-76,257 L-78,269 L-82,269 L-90,248 L-99,229 L-107,213 L-111,205 L-106,200 L-95,182 L-85,168 L-75,155 L-67,146 L-55,130 L-47,119 L-34,96 L-24,78 L-16,58 L-8,30 L-4,14 L-1,3 Z " fill="#7f5f22" transform="translate(1225,712)"/><path d="M0,0 L2,3 L3,41 L5,76 L7,90 L2,93 L-9,106 L-21,122 L-31,134 L-43,150 L-59,171 L-68,182 L-81,199 L-94,216 L-103,227 L-114,241 L-127,257 L-136,269 L-143,278 L-156,296 L-168,311 L-180,327 L-185,331 L-184,326 L-177,312 L-171,302 L-160,282 L-152,268 L-138,243 L-123,216 L-111,194 L-97,170 L-87,152 L-72,125 L-58,101 L-47,81 L-37,64 L-28,47 L-18,29 L-7,10 Z " fill="#7f5f22" transform="translate(654,1061)"/><path d="M0,0 L5,5 L16,24 L29,47 L44,75 L53,90 L63,108 L77,132 L92,160 L102,177 L118,205 L132,231 L145,254 L155,272 L167,293 L177,311 L184,323 L186,328 L185,331 L176,321 L162,302 L153,291 L143,277 L129,259 L118,245 L105,229 L96,217 L83,201 L75,190 L67,180 L60,171 L46,153 L31,133 L22,122 L8,104 L-3,91 L-6,90 L-4,76 L-2,41 L-1,3 Z " fill="#7f5f22" transform="translate(1161,1061)"/><path d="M0,0 L5,1 L16,10 L30,22 L32,25 L31,36 L20,87 L13,123 L5,159 L-1,190 L-10,229 L-14,231 L-22,224 L-32,215 L-42,206 L-50,198 L-51,196 L-50,186 L-40,148 L-32,119 L-20,71 L-9,30 L-2,3 Z " fill="#7f5f22" transform="translate(783,1357)"/><path d="M0,0 L5,1 L9,14 L20,56 L31,98 L41,138 L49,166 L55,190 L55,196 L48,204 L39,213 L31,220 L20,230 L17,231 L14,229 L7,199 L2,173 L-4,145 L-11,113 L-21,63 L-28,31 L-28,25 L-23,19 L-12,10 Z " fill="#7f5f22" transform="translate(1029,1357)"/><path d="M0,0 L4,2 L18,12 L29,21 L35,21 L50,9 L62,0 L65,1 L68,8 L69,19 L70,32 L71,39 L72,51 L73,56 L74,72 L75,76 L79,118 L79,129 L81,138 L80,146 L83,158 L82,167 L85,177 L84,189 L87,200 L86,210 L89,222 L89,231 L91,242 L94,273 L95,289 L96,299 L97,307 L95,312 L85,322 L80,327 L75,332 L67,339 L60,347 L48,359 L37,368 L35,370 L29,370 L18,360 L10,353 L-2,341 L-9,333 L-14,330 L-19,323 L-27,316 L-32,311 L-33,304 L-31,293 L-31,283 L-30,273 L-27,242 L-25,231 L-25,222 L-22,209 L-23,200 L-20,187 L-21,177 L-18,165 L-19,158 L-16,145 L-17,138 L-15,129 L-15,118 L-13,95 L-11,76 L-10,72 L-9,56 L-7,45 L-7,36 L-5,26 L-5,13 L-2,3 Z " fill="#7f5f22" transform="translate(876,1405)"/></g><g data-v="cream"><path d="M0,0 L89,0 L91,1 L103,27 L119,60 L132,86 L144,112 L167,157 L175,170 L177,172 L182,171 L188,162 L202,135 L216,108 L232,74 L251,36 L262,12 L267,1 L269,0 L358,0 L359,4 L359,24 L358,80 L357,113 L354,129 L349,137 L339,143 L328,145 L322,141 L313,131 L302,117 L291,105 L285,104 L280,109 L274,121 L273,124 L273,131 L282,156 L282,164 L271,182 L263,195 L257,209 L254,218 L249,245 L247,264 L247,307 L251,331 L263,385 L271,417 L279,453 L285,481 L284,486 L280,490 L275,489 L271,484 L261,479 L257,478 L236,478 L212,484 L194,489 L186,490 L172,490 L156,487 L131,480 L122,478 L101,478 L90,482 L84,487 L81,490 L77,489 L73,485 L74,477 L80,448 L89,409 L100,363 L109,321 L111,307 L111,264 L109,245 L104,218 L97,199 L88,183 L77,166 L76,164 L76,156 L85,131 L85,124 L80,112 L75,105 L69,104 L61,111 L47,128 L35,142 L30,145 L19,143 L9,137 L4,129 L1,113 L0,80 L-1,24 L-1,4 Z " fill="#f6f1e7" transform="translate(729,494)"/><path d="M0,0 L15,0 L33,6 L53,16 L68,26 L77,35 L82,39 L91,52 L97,68 L99,85 L99,96 L97,121 L95,121 L94,124 L92,122 L84,92 L76,72 L69,61 L60,51 L49,43 L33,35 L21,31 L5,29 L-13,31 L-32,36 L-58,46 L-61,47 L-78,47 L-85,45 L-91,37 L-89,33 L-69,25 L-43,14 L-14,3 Z " fill="#f6f1e7" transform="translate(716,648)"/><path d="M0,0 L15,0 L31,4 L58,14 L84,25 L99,31 L105,34 L106,37 L99,46 L93,47 L76,47 L49,37 L33,32 L23,30 L10,29 L-6,31 L-18,35 L-34,43 L-46,52 L-55,62 L-63,76 L-70,95 L-77,122 L-79,124 L-80,121 L-82,121 L-84,96 L-84,85 L-82,68 L-76,52 L-69,42 L-64,36 L-56,29 L-49,23 L-34,14 L-13,4 Z " fill="#f6f1e7" transform="translate(1085,648)"/><path d="M0,0 L9,2 L25,6 L32,15 L42,29 L49,36 L60,44 L74,51 L87,54 L93,55 L117,56 L124,60 L133,70 L143,86 L147,96 L146,98 L135,97 L101,89 L70,82 L53,76 L42,70 L28,59 L19,48 L9,32 L2,16 L-1,7 Z " fill="#f6f1e7" transform="translate(645,719)"/><path d="M0,0 L3,0 L4,7 L-3,26 L-10,39 L-20,53 L-27,61 L-42,72 L-55,78 L-70,83 L-129,96 L-137,98 L-143,98 L-144,95 L-136,79 L-128,68 L-121,60 L-114,56 L-90,55 L-74,52 L-62,47 L-51,40 L-38,28 L-26,11 L-22,6 L-6,2 Z " fill="#f6f1e7" transform="translate(1168,719)"/><path d="M0,0 L6,2 L5,18 L9,32 L18,46 L26,56 L34,63 L44,70 L63,79 L79,85 L90,92 L101,104 L112,118 L121,130 L125,139 L126,145 L126,173 L124,181 L118,189 L109,197 L89,210 L63,224 L36,237 L13,246 L4,248 L-5,248 L-14,245 L-23,239 L-21,235 L0,225 L14,216 L26,207 L39,196 L40,192 L14,195 L-12,197 L-42,197 L-61,196 L-67,189 L-72,179 L-73,172 L-14,172 L14,169 L42,163 L51,160 L52,153 L50,151 L13,151 L-15,149 L-48,144 L-69,139 L-75,136 L-75,114 L-74,113 L-67,113 L-38,119 L-22,121 L8,122 L24,122 L39,121 L41,117 L38,112 L33,110 L8,106 L-16,100 L-43,92 L-68,83 L-73,80 L-73,72 L-71,64 L-65,63 L-44,68 L-13,73 L-1,73 L-2,68 L-9,54 L-12,44 L-13,37 L-13,27 L-10,15 L-5,5 Z " fill="#f6f1e7" transform="translate(768,956)"/><path d="M0,0 L4,2 L8,7 L12,15 L15,27 L15,37 L12,51 L7,63 L3,70 L3,73 L15,73 L52,67 L69,63 L73,64 L75,72 L75,80 L65,85 L29,97 L3,104 L-17,108 L-34,111 L-38,115 L-39,119 L-37,121 L-22,122 L-6,122 L24,121 L51,117 L69,113 L76,113 L77,114 L77,136 L68,140 L43,145 L17,149 L-11,151 L-48,151 L-50,153 L-49,160 L-37,164 L-12,169 L16,172 L75,172 L74,179 L69,189 L63,196 L44,197 L14,197 L-12,195 L-38,192 L-36,197 L-22,209 L-3,222 L18,233 L24,236 L25,239 L15,246 L7,248 L-2,248 L-14,245 L-38,235 L-71,219 L-89,209 L-104,199 L-114,191 L-121,183 L-123,179 L-124,173 L-124,145 L-122,136 L-115,124 L-105,112 L-96,101 L-88,92 L-77,85 L-52,75 L-37,67 L-26,57 L-21,52 L-13,42 L-7,32 L-3,18 L-3,10 L-4,2 Z " fill="#f6f1e7" transform="translate(1046,956)"/><path d="M0,0 L16,2 L53,10 L67,12 L87,12 L107,9 L138,2 L150,1 L154,0 L179,12 L219,32 L223,37 L222,73 L218,79 L210,87 L200,95 L190,104 L179,113 L166,124 L161,123 L159,95 L155,96 L144,107 L137,115 L122,129 L110,140 L99,149 L86,160 L79,165 L73,164 L60,153 L49,144 L34,131 L23,120 L15,113 L1,98 L-2,95 L-5,95 L-7,123 L-12,124 L-27,111 L-40,100 L-48,93 L-59,84 L-66,77 L-68,73 L-69,37 L-65,32 L-5,2 Z " fill="#f6f1e7" transform="translate(831,1214)"/></g></svg>